<svg xmlns="http://www.w3.org/2000/svg" viewBox="0 0 640 220" role="img" aria-label="An envelope and old photographs, reaching across a distance">
  <path d="M60 170 C 200 40, 440 40, 580 170" fill="none" stroke="#c8952e" stroke-width="2" stroke-dasharray="2 8" stroke-linecap="round"/>

  <g transform="translate(60,120) rotate(-8)">
    <rect x="-45" y="-55" width="90" height="105" fill="#fffdf8" stroke="#e4d8c3" stroke-width="2"/>
    <rect x="-37" y="-47" width="74" height="70" fill="#f2e6d3"/>
  </g>

  <g transform="translate(580,120) rotate(9)">
    <rect x="-45" y="-55" width="90" height="105" fill="#fffdf8" stroke="#e4d8c3" stroke-width="2"/>
    <rect x="-37" y="-47" width="74" height="70" fill="#f2e6d3"/>
  </g>

  <g transform="translate(320,120)">
    <rect x="-70" y="-45" width="140" height="90" rx="3" fill="#fffdf8" stroke="#b5502e" stroke-width="3"/>
    <path d="M-70 -43 L0 10 L70 -43" fill="none" stroke="#b5502e" stroke-width="3" stroke-linejoin="round" stroke-linecap="round"/>
    <circle cx="0" cy="8" r="12" fill="#8c3c22"/>
    <path d="M0 3 c-2 -3 -7 -1 -6 3.5 c0.7 3 6 6.5 6 6.5 s5.3 -3.5 6 -6.5 c1 -4.5 -4 -6.5 -6 -3.5 z" fill="#c8952e"/>
  </g>
</svg>
